<?xml version="1.0" encoding="UTF-8" standalone="no"?>
<!DOCTYPE svg PUBLIC "-//W3C//DTD SVG 1.1//EN" "http://www.w3.org/Graphics/SVG/1.1/DTD/svg11.dtd">
<svg width="100%" height="100%" viewBox="0 0 437 420" version="1.1" xmlns="http://www.w3.org/2000/svg" xmlns:xlink="http://www.w3.org/1999/xlink" xml:space="preserve" style="fill-rule:evenodd;clip-rule:evenodd;stroke-linejoin:round;stroke-miterlimit:1.41421;">
    <g id="XMLID_175_">
        <path id="XMLID_178_" d="M222.9,322.7C224.8,321.5 226.7,320.2 228.5,319C243.3,309.5 256.5,298.2 268.4,285.3C269.7,283.9 271,282.4 272.4,281.1C272.8,280.7 273.8,280.5 274.4,280.6C277.8,281.5 281.2,282.7 284.7,283.4C288.9,284.3 294,282.4 295.7,278.2C297,274.8 297.4,271.4 296.8,267.9C295.7,260.9 293.1,254.4 290.1,248.1C285.6,238.6 279,230.7 271,223.8C266.4,219.9 261.5,216.4 256.2,213.8C251.4,211.5 246.4,209.4 241.3,207.7C237.9,206.5 234.2,205.9 230.6,205.3C228.1,204.9 225.5,204.6 222.9,204.6C218.7,204.6 214.4,204.5 210.2,205.1C206.4,205.6 202.7,207 199,208.2C196.8,208.9 195.9,208.8 194.9,206.7C193.9,204.6 192.9,202.4 192.2,200.1C190.7,195.6 189.1,191.1 187.9,186.4C186.9,182.2 186.1,177.8 185.8,173.5C185.5,168.2 185.5,162.9 185.8,157.6C186,154.3 187,151 187.7,147.8C188.1,145.8 190,145.5 191.5,144.9C202.6,140.9 214,139 225.7,139.8C231.9,140.2 238.2,141 244.3,142.4C250.7,143.9 256.9,146.1 263.1,148.3C272.1,151.4 280.6,155.9 288.7,161C300.4,168.3 311.2,176.7 320.5,186.9C323.8,190.6 327.5,194 330.6,197.9C334,202.1 337,206.7 340.1,211.1C345.1,218.3 349.2,226.1 352.3,234.2C354.6,240.2 356.3,246.4 358.1,252.5C360.6,261.6 361.2,271 360.6,280.4C360.2,287.2 358.8,293.8 356.5,300.1C353.6,308.1 349.3,315.2 343.5,321.4C338.1,327.2 331.8,331.9 324.5,335.3C319.4,337.7 314,339.4 308.5,340.3C303.4,341.1 298.2,341.3 293,341.5C286.3,341.8 279.6,341.2 273,339.8C267.2,338.5 261.2,337.5 255.5,335.8C249,333.9 242.7,331.4 236.3,329C231.7,327.3 227.3,325.2 222.8,323.3C222.9,323.1 222.9,322.9 222.9,322.7Z" style="fill:rgb(0,153,153);fill-rule:nonzero;"/>
        <path id="XMLID_177_" d="M314.7,176.5C311.4,173.8 308.4,171.3 305.3,168.8C298.1,163.1 290.5,157.9 282.4,153.6C276.4,150.5 270.4,147.5 264.2,145C259.5,143.1 254.6,141.8 249.8,140.2C249.3,140 248.7,139.4 248.6,138.8C245.8,129.1 239.7,122.2 230.7,118C224.6,115.2 218.2,114.4 211.7,116.1C204.8,117.9 199.3,121.9 194.9,127.3C190.4,132.8 187.3,139.1 185.1,145.8C182.3,154.4 181.3,163.2 182.2,172.2C182.7,177 183.2,181.8 184.2,186.5C184.9,190.1 186.4,193.5 187.6,196.9C188.6,199.7 189.4,202.7 190.6,205.4C192,208.5 194,211.4 195.5,214.5C200.2,223.7 206.6,231.6 213.7,239C214.9,240.2 216.1,241.3 217.4,242.5C218.2,243.2 218.3,243.8 217.4,244.6C210.9,250.5 203.9,255.9 196.4,260.5C190.4,264.3 184.1,267.4 177.5,270.1C174.5,271.3 171.4,272.2 168.3,273.2C167.2,273.6 166.6,273.1 166,272.2C159.9,262.6 153.5,253 147.6,243.3C144.4,238.1 141.9,232.4 139.2,226.9C137.3,223 135.7,218.9 134.1,214.9C133.3,212.9 132.9,210.8 132.2,208.7C131.4,206.2 130.6,203.8 129.8,201.3C129.3,199.8 128.9,198.2 128.6,196.6C127.3,190.7 125.8,184.8 125,178.9C124.2,172.9 123.9,166.8 123.7,160.8C123.5,155.8 123.5,150.8 124,145.9C124.4,141.6 125.3,137.4 126.4,133.2C127.4,129 128.8,124.9 130.3,120.9C132.5,115.1 135.3,109.7 138.7,104.6C144.4,96 151.5,88.7 159.8,82.6C164.9,78.9 170.3,75.5 176.1,73C180.3,71.2 184.5,69.4 188.9,68C193.2,66.7 197.6,65.9 201.9,64.9C210.6,62.9 219.5,62.7 228.4,63.3C233.3,63.6 238.2,64.6 243.1,65.8C247,66.7 250.8,68.1 254.6,69.4C261.5,71.9 267.9,75.6 273.9,79.8C283.8,86.8 292,95.4 298.6,105.5C302,110.7 305,116.2 307.2,122.2C309,127.2 310.9,132.2 312.3,137.4C314.4,145.6 315.5,154.1 315.5,162.6C315.5,166.8 315.3,171 315.2,175.3C315,175.4 314.9,175.8 314.7,176.5Z" style="fill:rgb(248,153,29);fill-rule:nonzero;"/>
        <path id="XMLID_176_" d="M122.5,186.3C122.9,188 123.3,189.5 123.6,191C124.2,193.7 124.6,196.4 125.3,199C126.3,202.5 127.3,206.1 128.6,209.5C130.5,214.7 132.3,219.9 134.7,224.8C138.2,232.2 142.1,239.4 145.9,246.6C146.2,247.1 146.4,247.7 146.8,248.1C148.8,250.4 148.5,252.4 146.9,254.9C144,259.3 142,264.2 141.5,269.5C141,274.6 143.3,279.3 149.4,279.5C154.2,279.7 158.9,279.1 163.5,277.8C166.7,276.9 170,276.1 173.1,275C177.3,273.5 181.5,272.1 185.4,270.2C191.1,267.3 196.8,264.1 202.2,260.6C212.3,254 221.5,246.3 229.2,237C233.8,231.4 237.8,225.2 241.9,219.3C243.1,217.6 243.9,215.7 245,213.9C245.2,213.5 246.1,213.2 246.5,213.3C248.3,213.9 250.1,214.5 251.7,215.3C254.2,216.6 256.6,218 259,219.4C267.3,224.4 274.6,230.6 280.3,238.4C283.2,242.4 285.5,246.8 288,251.1C288.7,252.3 288.7,253.5 288,254.7C282.9,263.3 277.2,271.5 270.6,279C258.8,292.5 245.2,304 230.4,314C222.4,319.4 214.1,324.4 205.4,328.5C199.1,331.4 192.7,333.8 186.2,336.1C172.5,340.9 158.4,342.7 144,341.3C138.6,340.8 133.3,339.4 128,338C120.7,336.1 114.1,332.9 107.7,328.9C99.2,323.5 92.4,316.6 87.9,307.5C84.4,300.5 82.2,293.2 81.6,285.4C81.2,280.4 80.7,275.4 81,270.5C81.3,265 82.3,259.6 83.4,254.2C84.1,250.4 85.1,246.6 86.4,243C88.4,237.7 90.8,232.5 93.2,227.3C97.1,218.9 102.2,211.2 107.8,203.8C112.1,198.2 116.7,193 121.2,187.6C121.4,187.1 121.9,186.8 122.5,186.3Z" style="fill:rgb(146,39,143);fill-rule:nonzero;"/>
    </g>
</svg>
